<svg width="107" height="52" viewBox="0 0 107 52" fill="none" xmlns="http://www.w3.org/2000/svg">
<g clip-path="url(#clip0)">
<path d="M81.3017 52C76.2191 52 71.2506 50.4751 67.0245 47.618C62.7984 44.761 59.5046 40.7002 57.5596 35.9491C55.6145 31.198 55.1056 25.97 56.0972 20.9263C57.0888 15.8825 59.5363 11.2496 63.1303 7.61326C66.7242 3.97693 71.3033 1.50056 76.2882 0.497297C81.2732 -0.505963 86.4403 0.00894657 91.1361 1.97691C95.8318 3.94488 99.8454 7.27752 102.669 11.5534C105.493 15.8293 107 20.8563 107 25.9989C106.992 32.8923 104.282 39.5012 99.4645 44.3756C94.6468 49.25 88.1149 51.992 81.3017 52ZM81.3017 4.2423C77.0479 4.2423 72.8896 5.51858 69.3527 7.90973C65.8157 10.3009 63.059 13.6995 61.4312 17.6759C59.8033 21.6522 59.3774 26.0277 60.2072 30.2489C61.0371 34.4702 63.0855 38.3477 66.0935 41.391C69.1014 44.4344 72.9337 46.5069 77.1058 47.3466C81.2779 48.1863 85.6024 47.7553 89.5324 46.1083C93.4624 44.4612 96.8215 41.672 99.1848 38.0934C101.548 34.5148 102.81 30.3075 102.81 26.0035C102.804 20.2334 100.536 14.7011 96.5042 10.6205C92.4721 6.53994 87.0047 4.24443 81.3017 4.23765V4.2423Z" fill="#231F20"/>
<path d="M25.6983 51.9998C20.6157 51.9998 15.6472 50.4748 11.4211 47.6178C7.19505 44.7607 3.90123 40.6999 1.95618 35.9488C0.0111349 31.1977 -0.497778 25.9698 0.493798 20.926C1.48537 15.8823 3.9329 11.2493 7.52688 7.61301C11.1209 3.97669 15.6999 1.50031 20.6848 0.497053C25.6698 -0.506207 30.8369 0.00870243 35.5327 1.97667C40.2284 3.94464 44.242 7.27727 47.0657 11.5531C49.8895 15.829 51.3967 20.8561 51.3967 25.9986C51.3887 32.8921 48.6787 39.5009 43.8611 44.3754C39.0434 49.2498 32.5115 51.9918 25.6983 51.9998ZM25.6983 4.24206C21.4441 4.24114 17.2852 5.51675 13.7475 7.90754C10.2099 10.2983 7.45248 13.6969 5.82404 17.6735C4.1956 21.65 3.76928 26.0258 4.59902 30.2475C5.42875 34.4692 7.47726 38.3471 10.4855 41.3908C13.4936 44.4344 17.3264 46.5071 21.4989 47.3466C25.6714 48.1861 29.9963 47.7547 33.9265 46.1071C37.8567 44.4595 41.2157 41.6696 43.5787 38.0902C45.9417 34.5109 47.2024 30.303 47.2015 25.9986C47.1948 20.2301 44.9273 14.6997 40.8962 10.6202C36.8652 6.54083 31.3997 4.24542 25.6983 4.2374V4.24206Z" fill="#231F20"/>
<path fill-rule="evenodd" clip-rule="evenodd" d="M32.8246 10.4997C33.7977 10.4983 34.7493 10.7891 35.5591 11.3351C36.3688 11.8812 37.0003 12.658 37.3735 13.5673C37.7468 14.4765 37.845 15.4774 37.6558 16.4432C37.4667 17.409 36.9986 18.2963 36.3108 18.9929C35.623 19.6894 34.7465 20.1638 33.7921 20.3561C32.8377 20.5484 31.8484 20.45 30.9494 20.0732C30.0504 19.6964 29.282 19.0582 28.7416 18.2395C28.2011 17.4207 27.9129 16.4581 27.9133 15.4735C27.9145 14.1556 28.4322 12.8919 29.3529 11.9595C30.2735 11.0272 31.522 10.5022 32.8246 10.4997Z" fill="#231F20"/>
<path d="M32.8246 21.1532C31.7149 21.1504 30.631 20.815 29.7096 20.1892C28.7883 19.5634 28.071 18.6754 27.6482 17.6374C27.2254 16.5993 27.1163 15.4577 27.3344 14.3569C27.5526 13.2561 28.0883 12.2454 28.8739 11.4525C29.6595 10.6595 30.6598 10.12 31.7483 9.90197C32.8368 9.68395 33.9648 9.79724 34.9898 10.2275C36.0147 10.6578 36.8906 11.3858 37.5068 12.3195C38.123 13.2532 38.4519 14.3508 38.4519 15.4735C38.4516 16.2205 38.3057 16.96 38.0227 17.6499C37.7396 18.3398 37.3248 18.9664 36.8022 19.4939C36.2795 20.0214 35.6592 20.4395 34.9766 20.7242C34.2941 21.009 33.5628 21.1547 32.8246 21.1532ZM32.8246 11.2033C31.9894 11.2037 31.1731 11.4548 30.4789 11.9246C29.7847 12.3945 29.2438 13.0621 28.9246 13.843C28.6054 14.6238 28.5223 15.483 28.6857 16.3117C28.849 17.1404 29.2516 17.9014 29.8425 18.4987C30.4334 19.0959 31.1861 19.5024 32.0053 19.6668C32.8245 19.8312 33.6735 19.7461 34.445 19.4223C35.2164 19.0985 35.8757 18.5505 36.3393 17.8476C36.8029 17.1447 37.0501 16.3185 37.0497 15.4735C37.0497 14.9123 36.9404 14.3567 36.728 13.8383C36.5156 13.3199 36.2043 12.8489 35.8119 12.4524C35.4195 12.0558 34.9537 11.7413 34.4411 11.527C33.9285 11.3127 33.3792 11.2027 32.8246 11.2033Z" fill="#231F20"/>
<path fill-rule="evenodd" clip-rule="evenodd" d="M76.7474 32.615C77.72 32.6159 78.6705 32.9086 79.4787 33.4561C80.287 34.0035 80.9166 34.7811 81.2881 35.6906C81.6596 36.6001 81.7562 37.6006 81.5657 38.5656C81.3752 39.5307 80.9062 40.4169 80.218 41.1123C79.5297 41.8076 78.6532 42.2809 77.6991 42.4723C76.7451 42.6636 75.7564 42.5645 74.858 42.1874C73.9596 41.8102 73.1919 41.1721 72.652 40.3535C72.1121 39.535 71.8241 38.5729 71.8246 37.5888C71.8258 36.2688 72.3451 35.0034 73.2682 34.0707C74.1913 33.138 75.4428 32.6144 76.7474 32.615Z" fill="#231F20"/>
<path d="M76.7474 43.2778C75.6374 43.2764 74.5528 42.9421 73.6305 42.3172C72.7083 41.6923 71.9899 40.8047 71.5661 39.7668C71.1423 38.7289 71.0321 37.5871 71.2495 36.4858C71.4668 35.3845 72.002 34.3731 72.7874 33.5795C73.5727 32.7859 74.5729 32.2457 75.6617 32.0271C76.7504 31.8085 77.8787 31.9214 78.9041 32.3515C79.9294 32.7816 80.8057 33.5095 81.4222 34.4434C82.0387 35.3773 82.3678 36.4751 82.3678 37.5981C82.3654 39.1049 81.7722 40.5492 80.7185 41.614C79.6648 42.6788 78.2366 43.2772 76.7474 43.2778ZM76.7474 33.3279C75.9123 33.3288 75.0962 33.5802 74.4023 34.0504C73.7084 34.5205 73.1679 35.1883 72.8491 35.9692C72.5302 36.7501 72.4474 37.6091 72.611 38.4377C72.7747 39.2663 73.1775 40.0271 73.7684 40.6241C74.3594 41.2211 75.1121 41.6273 75.9312 41.7915C76.7504 41.9558 77.5993 41.8706 78.3706 41.5467C79.1419 41.2228 79.801 40.6748 80.2645 39.972C80.7281 39.2692 80.9752 38.4431 80.9748 37.5981C80.9729 36.4649 80.5268 35.3788 79.7342 34.5782C78.9416 33.7776 77.8674 33.3279 76.7474 33.3279Z" fill="#231F20"/>
</g>
<defs>
<clipPath id="clip0">
<rect width="107" height="52" fill="white"/>
</clipPath>
</defs>
</svg>
