<svg width="293" height="51" viewBox="0 0 293 51" fill="none" xmlns="http://www.w3.org/2000/svg">
<g clip-path="url(#clip0)">
<path d="M79.0222 51C74.0821 51 69.2529 49.5044 65.1453 46.7023C61.0377 43.9002 57.8362 39.9175 55.9457 35.2577C54.0552 30.598 53.5606 25.4706 54.5243 20.5238C55.4881 15.5771 57.867 11.0332 61.3602 7.46684C64.8534 3.90044 69.304 1.47169 74.1493 0.48772C78.9945 -0.496247 84.0167 0.00876044 88.5808 1.93888C93.1449 3.869 97.0459 7.13755 99.7905 11.3312C102.535 15.5248 104 20.4552 104 25.4989C103.992 32.2598 101.358 38.7415 96.6757 43.5222C91.9931 48.3029 85.6444 50.9921 79.0222 51ZM79.0222 4.16071C74.8876 4.16071 70.8459 5.41244 67.4082 7.75761C63.9704 10.1028 61.291 13.4361 59.7087 17.3359C58.1265 21.2358 57.7125 25.5271 58.5191 29.6672C59.3258 33.8073 61.3167 37.6102 64.2403 40.595C67.1639 43.5799 70.8888 45.6126 74.9439 46.4361C78.999 47.2596 83.2023 46.8369 87.0221 45.2215C90.8419 43.6062 94.1068 40.8706 96.4039 37.3608C98.7009 33.851 99.9269 29.7246 99.9269 25.5034C99.9216 19.8442 97.7176 14.4183 93.7985 10.4162C89.8793 6.41416 84.5653 4.16279 79.0222 4.15614V4.16071Z" fill="#231F20"/>
<path d="M24.9778 50.9997C20.0377 50.9997 15.2085 49.5041 11.1009 46.702C6.99331 43.8999 3.79185 39.9172 1.90133 35.2575C0.0108227 30.5977 -0.483822 25.4703 0.479953 20.5236C1.44373 15.5768 3.82263 11.033 7.31584 7.46656C10.8091 3.90016 15.2597 1.47141 20.1049 0.487445C24.9501 -0.496522 29.9723 0.00848578 34.5364 1.93861C39.1005 3.86873 43.0015 7.13727 45.7461 11.3309C48.4907 15.5246 49.9556 20.4549 49.9556 25.4986C49.9479 32.2595 47.3139 38.7412 42.6313 43.5219C37.9487 48.3026 31.6 50.9919 24.9778 50.9997ZM24.9778 4.16043C20.8429 4.15953 16.8005 5.41061 13.3621 7.75543C9.92364 10.1002 7.24353 13.4335 5.66075 17.3335C4.07796 21.2336 3.6636 25.5253 4.47007 29.6658C5.27655 33.8063 7.26762 37.6096 10.1915 40.5947C13.1153 43.5799 16.8406 45.6126 20.8961 46.436C24.9517 47.2594 29.1553 46.8363 32.9753 45.2204C36.7953 43.6044 40.0602 40.8682 42.3569 37.3577C44.6536 33.8472 45.879 29.7202 45.8781 25.4986C45.8716 19.841 43.6676 14.4169 39.7496 10.416C35.8316 6.415 30.5193 4.16372 24.9778 4.15586V4.16043Z" fill="#231F20"/>
<path fill-rule="evenodd" clip-rule="evenodd" d="M31.9043 10.2978C32.8501 10.2964 33.7751 10.5816 34.5621 11.1171C35.3492 11.6527 35.9629 12.4145 36.3257 13.3063C36.6885 14.1981 36.7839 15.1798 36.6001 16.127C36.4162 17.0742 35.9612 17.9445 35.2928 18.6276C34.6243 19.3107 33.7723 19.776 32.8447 19.9646C31.9171 20.1533 30.9555 20.0567 30.0817 19.6871C29.2078 19.3176 28.461 18.6917 27.9357 17.8887C27.4104 17.0857 27.1303 16.1416 27.1307 15.1759C27.1319 13.8833 27.6351 12.644 28.5299 11.7295C29.4247 10.8151 30.6382 10.3002 31.9043 10.2978Z" fill="#231F20"/>
<path d="M31.9043 20.7464C30.8258 20.7437 29.7722 20.4147 28.8767 19.8009C27.9812 19.1872 27.284 18.3163 26.8731 17.2982C26.4622 16.2801 26.3561 15.1605 26.5681 14.0808C26.7801 13.0012 27.3008 12.0099 28.0644 11.2322C28.828 10.4545 29.8002 9.92537 30.8582 9.71154C31.9163 9.49771 33.0126 9.60882 34.0088 10.0308C35.005 10.4528 35.8563 11.1668 36.4553 12.0826C37.0542 12.9983 37.3739 14.0748 37.3739 15.1759C37.3736 15.9085 37.2318 16.6339 36.9567 17.3105C36.6815 17.9871 36.2784 18.6016 35.7704 19.119C35.2624 19.6364 34.6595 20.0464 33.9961 20.3257C33.3327 20.6049 32.6219 20.7479 31.9043 20.7464ZM31.9043 10.9878C31.0925 10.9883 30.2991 11.2345 29.6244 11.6953C28.9497 12.1561 28.424 12.8109 28.1137 13.5767C27.8035 14.3426 27.7226 15.1852 27.8814 15.998C28.0403 16.8107 28.4316 17.5572 29.0059 18.1429C29.5802 18.7286 30.3118 19.1273 31.108 19.2886C31.9043 19.4498 32.7295 19.3664 33.4793 19.0488C34.2291 18.7312 34.8699 18.1937 35.3205 17.5044C35.7711 16.815 36.0114 16.0047 36.011 15.1759C36.011 14.6256 35.9047 14.0806 35.6983 13.5722C35.4918 13.0637 35.1893 12.6018 34.8079 12.2129C34.4265 11.8239 33.9737 11.5155 33.4755 11.3053C32.9773 11.0951 32.4434 10.9872 31.9043 10.9878Z" fill="#231F20"/>
<path fill-rule="evenodd" clip-rule="evenodd" d="M74.5955 31.9878C75.5409 31.9887 76.4648 32.2758 77.2503 32.8127C78.0359 33.3496 78.6479 34.1123 79.009 35.0043C79.37 35.8963 79.4639 36.8775 79.2788 37.824C79.0936 38.7705 78.6378 39.6397 77.9689 40.3217C77.2999 41.0036 76.4479 41.4678 75.5206 41.6555C74.5933 41.8432 73.6323 41.746 72.7592 41.3761C71.886 41.0062 71.1398 40.3803 70.615 39.5775C70.0902 38.7747 69.8103 37.8311 69.8108 36.866C69.812 35.5714 70.3167 34.3303 71.2139 33.4155C72.1112 32.5007 73.3275 31.9872 74.5955 31.9878Z" fill="#231F20"/>
<path d="M74.5955 42.4456C73.5167 42.4442 72.4625 42.1163 71.5661 41.5034C70.6697 40.8905 69.9715 40.0201 69.5595 39.0021C69.1476 37.9841 69.0405 36.8643 69.2518 35.7842C69.4631 34.7041 69.9832 33.7121 70.7466 32.9338C71.5099 32.1554 72.4821 31.6256 73.5403 31.4112C74.5985 31.1968 75.6952 31.3075 76.6918 31.7293C77.6884 32.1512 78.5401 32.8651 79.1393 33.781C79.7386 34.6969 80.0584 35.7737 80.0584 36.8751C80.056 38.3529 79.4795 39.7694 78.4553 40.8138C77.4312 41.8581 76.043 42.4449 74.5955 42.4456ZM74.5955 32.687C73.7839 32.6879 72.9907 32.9345 72.3162 33.3956C71.6418 33.8567 71.1164 34.5116 70.8065 35.2775C70.4966 36.0434 70.4161 36.8859 70.5752 37.6985C70.7342 38.5112 71.1257 39.2574 71.7001 39.8429C72.2745 40.4284 73.0061 40.8268 73.8023 40.9879C74.5985 41.1489 75.4236 41.0654 76.1733 40.7477C76.923 40.4301 77.5636 39.8926 78.0141 39.2033C78.4646 38.514 78.7049 37.7038 78.7044 36.8751C78.7026 35.7637 78.269 34.6985 77.4986 33.9132C76.7282 33.128 75.6841 32.687 74.5955 32.687Z" fill="#231F20"/>
</g>
<g clip-path="url(#clip1)">
<path d="M119.394 38.9424C119.646 39.2823 119.947 39.5827 120.288 39.8336C121.107 40.3612 122.069 40.627 123.044 40.5955C124.032 40.623 125.002 40.3264 125.804 39.7512C126.566 39.1897 126.952 38.5503 126.952 37.8329C126.952 37.0108 126.566 36.2889 125.804 35.6718C125.023 35.0477 124.045 34.7194 123.044 34.745C122.707 34.7311 122.389 34.5881 122.156 34.3458C121.923 34.1035 121.793 33.7807 121.793 33.445C121.793 33.1092 121.923 32.7865 122.156 32.5442C122.389 32.3019 122.707 32.1589 123.044 32.145C123.999 32.1729 124.946 31.9687 125.804 31.5501C126.566 31.1491 126.952 30.6456 126.952 30.0396C126.952 29.3244 126.566 28.7385 125.804 28.2817C124.963 27.8089 124.009 27.5733 123.044 27.6C122.069 27.5718 121.109 27.8382 120.29 28.3642C119.954 28.603 119.661 28.8968 119.423 29.2331C119.369 29.3189 119.306 29.3981 119.233 29.4692C119.114 29.5947 118.97 29.6942 118.81 29.7613C118.65 29.8284 118.478 29.8617 118.304 29.8591C118.133 29.8617 117.964 29.8289 117.806 29.763C117.649 29.697 117.506 29.5993 117.388 29.4759C117.264 29.3589 117.166 29.2175 117.099 29.0607C117.032 28.9039 116.998 28.7351 117 28.5647C116.998 28.3172 117.065 28.0741 117.194 27.8629C117.533 27.3537 117.951 26.9023 118.434 26.5261C119.705 25.5057 121.243 25 123.044 25C124.844 25 126.381 25.4812 127.654 26.437C128.927 27.3928 129.559 28.5959 129.559 30.0396C129.559 31.4833 128.837 32.6151 127.361 33.4506C128.826 34.716 129.559 36.182 129.559 37.8374C129.559 39.2796 128.924 40.5332 127.654 41.5981C126.384 42.6631 124.847 43.197 123.044 43.2C121.237 43.2 119.705 42.692 118.434 41.6716C117.996 41.3362 117.611 40.9366 117.292 40.4864C117.118 40.2634 117.026 39.9872 117.031 39.7044C117.028 39.5329 117.061 39.3627 117.127 39.2044C117.193 39.0461 117.291 38.903 117.415 38.7842C117.535 38.6618 117.679 38.5652 117.838 38.5005C117.998 38.4357 118.168 38.4041 118.34 38.4077C118.546 38.402 118.751 38.4479 118.935 38.5413C119.119 38.6347 119.277 38.7726 119.394 38.9424Z" fill="#231F20"/>
<path d="M147.802 40.4686C146.961 41.3436 145.949 42.0374 144.828 42.5071C143.708 42.9769 142.503 43.2127 141.287 43.2C140.086 43.2177 138.893 42.9896 137.783 42.5298C136.673 42.07 135.67 41.3882 134.835 40.5265C133.97 39.6939 133.287 38.6933 132.826 37.5866C132.365 36.4799 132.136 35.2905 132.154 34.0922C132.138 32.8965 132.368 31.7102 132.829 30.6063C133.29 29.5024 133.972 28.5043 134.835 27.6735C135.67 26.8118 136.673 26.13 137.783 25.6702C138.893 25.2104 140.086 24.9823 141.287 25C142.488 24.9825 143.68 25.2107 144.789 25.6706C145.898 26.1304 146.901 26.8121 147.735 27.6735C148.599 28.5066 149.283 29.5076 149.744 30.6147C150.205 31.7218 150.434 32.9114 150.415 34.11V41.9078C150.402 42.2433 150.258 42.5604 150.015 42.7928C149.772 43.0253 149.449 43.1551 149.112 43.1551C148.776 43.1551 148.452 43.0253 148.209 42.7928C147.966 42.5604 147.823 42.2433 147.809 41.9078L147.802 40.4686ZM141.287 27.6C140.429 27.5859 139.578 27.7473 138.785 28.0741C137.992 28.401 137.275 28.8864 136.677 29.5004C136.06 30.0961 135.572 30.8118 135.244 31.6032C134.915 32.3945 134.753 33.2447 134.768 34.1011C134.752 34.9573 134.914 35.8074 135.243 36.5986C135.571 37.3897 136.06 38.1049 136.677 38.6996C137.901 39.9164 139.559 40.5997 141.287 40.5997C143.015 40.5997 144.673 39.9164 145.897 38.6996C146.512 38.1034 146.999 37.3878 147.327 36.597C147.654 35.8061 147.816 34.9567 147.802 34.1011C147.816 33.2452 147.654 32.3956 147.326 31.6045C146.998 30.8133 146.512 30.0973 145.897 29.5004C145.299 28.8869 144.582 28.4019 143.789 28.0751C142.996 27.7482 142.145 27.5866 141.287 27.6Z" fill="#231F20"/>
<path d="M163.475 42.2264L159.537 30.4184L155.517 42.4492C155.446 42.5855 155.356 42.7114 155.251 42.8235C155.129 42.9441 154.983 43.0393 154.824 43.1035C154.665 43.1678 154.494 43.1998 154.322 43.1978C153.977 43.1972 153.646 43.0606 153.401 42.8178C153.156 42.5749 153.018 42.2455 153.015 41.9011C153.018 41.7281 153.051 41.5568 153.114 41.3954L158.32 25.8444C158.39 25.6692 158.494 25.5095 158.626 25.3743C158.747 25.2577 158.891 25.1662 159.048 25.105C159.205 25.0439 159.373 25.0142 159.542 25.0178C159.885 25.0138 160.217 25.1414 160.468 25.3743C160.59 25.5145 160.689 25.6732 160.761 25.8444L164.755 37.795L168.737 25.8444C168.809 25.671 168.912 25.5118 169.041 25.3743C169.284 25.1401 169.611 25.0119 169.95 25.0178C170.293 25.0122 170.626 25.14 170.877 25.3743C171.002 25.5132 171.103 25.6721 171.176 25.8444L176.38 41.3976C176.444 41.5587 176.477 41.7302 176.478 41.9034C176.481 42.0749 176.449 42.2452 176.383 42.4035C176.316 42.5619 176.218 42.7049 176.094 42.8235C175.974 42.9465 175.831 43.0437 175.672 43.1092C175.514 43.1747 175.343 43.2072 175.172 43.2045C175.002 43.2062 174.834 43.1734 174.678 43.1078C174.521 43.0423 174.38 42.9455 174.263 42.8235C174.149 42.7158 174.054 42.5901 173.981 42.4514L169.961 30.4206L166.023 42.2286C165.96 42.45 165.846 42.6536 165.69 42.8235C165.568 42.9438 165.423 43.0388 165.263 43.103C165.104 43.1672 164.933 43.1995 164.761 43.1978C164.591 43.2011 164.422 43.1696 164.265 43.1052C164.107 43.0408 163.964 42.945 163.845 42.8235C163.679 42.6547 163.552 42.4507 163.475 42.2264Z" fill="#231F20"/>
<path d="M197.328 34.1011C197.346 35.2994 197.117 36.4886 196.656 37.5953C196.195 38.7019 195.512 39.7026 194.648 40.5354C192.937 42.2415 190.617 43.1999 188.197 43.1999C185.778 43.1999 183.458 42.2415 181.747 40.5354C180.883 39.7026 180.2 38.7019 179.739 37.5953C179.278 36.4886 179.049 35.2994 179.067 34.1011C179.049 32.9025 179.277 31.7129 179.738 30.6058C180.199 29.4987 180.883 28.4977 181.747 27.6646C183.458 25.9586 185.778 25.0002 188.197 25.0002C190.617 25.0002 192.937 25.9586 194.648 27.6646C195.512 28.4977 196.196 29.4987 196.657 30.6058C197.118 31.7129 197.346 32.9025 197.328 34.1011ZM188.206 27.6C187.349 27.5857 186.497 27.747 185.705 28.0738C184.912 28.4007 184.196 28.8863 183.599 29.5004C182.981 30.0957 182.492 30.8112 182.164 31.6027C181.835 32.3941 181.672 33.2445 181.687 34.1011C181.672 34.9575 181.834 35.8077 182.163 36.5988C182.492 37.39 182.981 38.1051 183.599 38.6996C184.822 39.9168 186.479 40.6004 188.207 40.6004C189.935 40.6004 191.593 39.9168 192.816 38.6996C193.433 38.1041 193.92 37.3887 194.249 36.5978C194.577 35.8069 194.74 34.9571 194.726 34.1011C194.74 33.2452 194.578 32.3954 194.25 31.6042C193.923 30.8129 193.436 30.097 192.821 29.5004C192.222 28.8861 191.504 28.4005 190.711 28.0736C189.917 27.7468 189.065 27.5856 188.206 27.6Z" fill="#231F20"/>
<path d="M202.543 49.7011C202.544 49.8718 202.511 50.0409 202.446 50.1987C202.381 50.3566 202.285 50.5 202.165 50.6208C202.044 50.7415 201.9 50.8372 201.742 50.9023C201.584 50.9674 201.414 51.0006 201.243 51C200.898 50.9994 200.566 50.8625 200.322 50.6192C200.077 50.3759 199.938 50.0458 199.937 49.7011V34.1056C199.918 32.9069 200.147 31.7173 200.608 30.6102C201.069 29.5032 201.753 28.5022 202.617 27.6691C204.328 25.9697 206.644 25.016 209.058 25.0168C211.472 25.0177 213.788 25.973 215.497 27.6735C216.362 28.5066 217.045 29.5076 217.506 30.6147C217.967 31.7218 218.196 32.9114 218.178 34.11C218.195 35.3083 217.967 36.4975 217.506 37.6042C217.045 38.7109 216.361 39.7115 215.497 40.5443C213.786 42.2504 211.466 43.2088 209.047 43.2088C206.628 43.2088 204.308 42.2504 202.597 40.5443C202.572 40.5243 202.554 40.502 202.53 40.4775L202.543 49.7011ZM202.543 34.1056C202.528 34.9619 202.69 35.8122 203.019 36.6033C203.348 37.3944 203.837 38.1095 204.455 38.704C205.678 39.9213 207.336 40.6049 209.064 40.6049C210.792 40.6049 212.449 39.9213 213.673 38.704C214.288 38.1081 214.775 37.3926 215.103 36.6017C215.431 35.8108 215.592 34.9613 215.578 34.1056C215.592 33.2484 215.429 32.3975 215.1 31.6054C214.771 30.8134 214.283 30.0969 213.666 29.5004C212.443 28.2832 210.785 27.5996 209.057 27.5996C207.329 27.5996 205.672 28.2832 204.448 29.5004C203.832 30.0963 203.345 30.8121 203.017 31.6035C202.689 32.3949 202.528 33.245 202.543 34.1011V34.1056Z" fill="#231F20"/>
<path d="M239.027 34.1011C239.045 35.2994 238.817 36.4886 238.356 37.5953C237.895 38.7019 237.211 39.7026 236.347 40.5354C234.636 42.2415 232.316 43.1999 229.897 43.1999C227.478 43.1999 225.157 42.2415 223.447 40.5354C222.583 39.7026 221.899 38.7019 221.438 37.5953C220.977 36.4886 220.748 35.2994 220.766 34.1011C220.748 32.9025 220.977 31.7129 221.438 30.6058C221.899 29.4987 222.582 28.4977 223.447 27.6646C225.157 25.9586 227.478 25.0002 229.897 25.0002C232.316 25.0002 234.636 25.9586 236.347 27.6646C237.211 28.4977 237.895 29.4987 238.356 30.6058C238.817 31.7129 239.046 32.9025 239.027 34.1011ZM229.908 27.6C229.05 27.5855 228.198 27.7467 227.406 28.0736C226.613 28.4005 225.895 28.8861 225.298 29.5004C224.68 30.0957 224.192 30.8112 223.863 31.6027C223.534 32.3941 223.372 33.2445 223.386 34.1011C223.371 34.9575 223.533 35.8077 223.862 36.5988C224.191 37.39 224.68 38.1051 225.298 38.6996C226.522 39.9168 228.179 40.6004 229.907 40.6004C231.635 40.6004 233.292 39.9168 234.516 38.6996C235.132 38.1037 235.618 37.3882 235.946 36.5973C236.274 35.8063 236.435 34.9568 236.421 34.1011C236.435 33.2452 236.273 32.3954 235.946 31.6042C235.618 30.8129 235.131 30.097 234.516 29.5004C233.918 28.8868 233.201 28.4016 232.409 28.0748C231.617 27.7479 230.765 27.5864 229.908 27.6Z" fill="#231F20"/>
<path d="M241.629 26.3011C241.627 26.13 241.66 25.9602 241.726 25.8023C241.792 25.6444 241.89 25.5018 242.014 25.3832C242.134 25.2619 242.278 25.1656 242.436 25.0999C242.594 25.0342 242.764 25.0003 242.935 25.0003C243.106 25.0003 243.276 25.0342 243.434 25.0999C243.592 25.1656 243.736 25.2619 243.856 25.3832C243.978 25.5029 244.075 25.6459 244.14 25.8036C244.205 25.9613 244.238 26.1305 244.236 26.3011V30.2C244.226 30.7993 244.34 31.3941 244.571 31.9476C244.801 32.501 245.143 33.0013 245.576 33.4171C246.432 34.27 247.592 34.7491 248.802 34.7491C250.012 34.7491 251.173 34.27 252.029 33.4171C252.46 33.0032 252.801 32.5056 253.031 31.9549C253.262 31.4042 253.377 30.8123 253.369 30.2156V26.3011C253.365 26.1304 253.397 25.9608 253.462 25.8029C253.526 25.645 253.623 25.5021 253.746 25.3832C253.867 25.2618 254.011 25.1655 254.169 25.0997C254.327 25.034 254.497 25.0002 254.669 25.0002C254.84 25.0002 255.01 25.034 255.168 25.0997C255.327 25.1655 255.47 25.2618 255.591 25.3832C255.713 25.5024 255.81 25.6453 255.875 25.8032C255.94 25.9611 255.972 26.1305 255.969 26.3011V41.8967C255.969 42.2406 255.832 42.5704 255.588 42.8135C255.344 43.0567 255.013 43.1933 254.669 43.1933C254.324 43.1933 253.993 43.0567 253.749 42.8135C253.506 42.5704 253.369 42.2406 253.369 41.8967V35.7097C251.997 36.8471 250.249 37.4321 248.468 37.3496C246.686 37.2672 245 36.5233 243.74 35.2641C243.059 34.6098 242.519 33.8225 242.156 32.9512C241.793 32.08 241.614 31.1434 241.629 30.2V26.3011Z" fill="#231F20"/>
<path d="M258.577 26.3011C258.575 26.1301 258.608 25.9605 258.674 25.8026C258.74 25.6448 258.838 25.5021 258.961 25.3832C259.082 25.2618 259.226 25.1655 259.384 25.0997C259.543 25.034 259.712 25.0002 259.884 25.0002C260.055 25.0002 260.225 25.034 260.383 25.0997C260.542 25.1655 260.685 25.2618 260.806 25.3832C260.928 25.503 261.024 25.6461 261.089 25.8038C261.154 25.9615 261.186 26.1307 261.184 26.3011V33.4016L270.752 25.3253C270.986 25.1105 271.294 24.994 271.612 25C271.784 24.9972 271.955 25.0298 272.113 25.0957C272.272 25.1617 272.415 25.2595 272.534 25.3832C272.658 25.502 272.755 25.6448 272.82 25.8027C272.885 25.9606 272.917 26.1303 272.914 26.3011C272.918 26.4701 272.887 26.6379 272.822 26.7943C272.758 26.9507 272.662 27.0922 272.541 27.2101L264.445 34.0521L272.541 40.9743C272.662 41.0963 272.757 41.2411 272.821 41.4002C272.885 41.5594 272.917 41.7297 272.914 41.9011C272.914 42.0718 272.881 42.2408 272.816 42.3985C272.75 42.5563 272.654 42.6996 272.533 42.8202C272.412 42.9409 272.269 43.0366 272.111 43.1017C271.953 43.1669 271.783 43.2003 271.612 43.2C271.301 43.2048 270.999 43.0954 270.763 42.8926L262.423 35.7632L261.184 36.8081V41.9011C261.17 42.2366 261.026 42.5537 260.784 42.7862C260.541 43.0186 260.217 43.1484 259.881 43.1484C259.544 43.1484 259.22 43.0186 258.977 42.7862C258.735 42.5537 258.591 42.2366 258.577 41.9011V26.3011Z" fill="#231F20"/>
<path d="M290.394 40.4686C289.552 41.3436 288.54 42.0374 287.419 42.5071C286.299 42.9769 285.094 43.2127 283.878 43.2C282.677 43.2177 281.484 42.9896 280.375 42.5298C279.265 42.07 278.261 41.3882 277.426 40.5265C276.562 39.6937 275.878 38.693 275.417 37.5864C274.956 36.4797 274.728 35.2905 274.746 34.0922C274.728 32.8936 274.956 31.704 275.417 30.5969C275.878 29.4899 276.562 28.4889 277.426 27.6557C279.139 25.9541 281.459 25.0001 283.877 25.0035C286.294 25.0068 288.612 25.9671 290.32 27.6735C291.184 28.5066 291.868 29.5076 292.329 30.6147C292.79 31.7218 293.018 32.9114 293 34.11V41.9078C292.986 42.2433 292.843 42.5604 292.6 42.7928C292.357 43.0253 292.033 43.1551 291.697 43.1551C291.36 43.1551 291.037 43.0253 290.794 42.7928C290.551 42.5604 290.407 42.2433 290.394 41.9078V40.4686ZM283.878 27.6C283.021 27.5859 282.169 27.7473 281.376 28.0741C280.583 28.401 279.866 28.8864 279.268 29.5004C278.653 30.0967 278.166 30.8126 277.839 31.604C277.511 32.3953 277.35 33.2452 277.366 34.1011C277.35 34.9573 277.512 35.8074 277.841 36.5986C278.169 37.3897 278.657 38.1049 279.275 38.6996C280.499 39.9164 282.157 40.5997 283.885 40.5997C285.613 40.5997 287.271 39.9164 288.495 38.6996C289.11 38.1034 289.597 37.3878 289.925 36.597C290.252 35.8061 290.414 34.9567 290.4 34.1011C290.413 33.2448 290.25 32.3949 289.921 31.6037C289.592 30.8125 289.105 30.0967 288.488 29.5004C287.89 28.8869 287.173 28.4019 286.38 28.0751C285.587 27.7482 284.736 27.5866 283.878 27.6Z" fill="#231F20"/>
</g>
<defs>
<clipPath id="clip0">
<rect width="104" height="51" fill="white"/>
</clipPath>
<clipPath id="clip1">
<rect width="176" height="26" fill="white" transform="translate(117 25)"/>
</clipPath>
</defs>
</svg>
